<svg xmlns="http://www.w3.org/2000/svg" xml:space="preserve" width="1500" height="1500" data-id="lg_xOO4HeVimCi6tAcOAv" data-version="1" viewBox="0 0 1500 1500"><path fill="#d6350e" stroke="transparent" d="M0 0h1500v1500H0z"/><g data-padding="20"><g transform="translate(-571.429 -584.184)scale(1.72194)"><rect width="560" height="117.52" x="86.907" y="315.612" fill="none" rx="0" ry="0" transform="translate(400.5 379.02)"/><path fill="#fff" d="M522.877 784.922q5.2 0 9.2-2.81 4.01-2.81 4.01-8.48t-4.32-8.68q-4.31-3.02-12.27-5.25-7.96-2.24-11.54-3.9-3.59-1.67-6.82-4.37-6.44-5.41-6.44-16.75 0-9.25 6.6-15.91 6.6-6.65 18.04-6.65 5.52 0 11.5 1.61t7.43 1.61q1.46 0 2.6-2.08h1.15l.72 21.01h-1.66q-4.99-9.05-10.45-14.51t-11.86-5.46q-6.39 0-9.93 2.96-3.54 2.97-3.54 7.91t4.22 7.59q4.21 2.65 10.34 4.32 6.14 1.66 8.06 2.28 1.93.63 4.79 1.72t4.68 2.29q1.82 1.19 3.85 3.01 2.02 1.82 3.17 4.01 2.81 4.99 2.81 11.85 0 11.24-7.02 18.05t-18.46 6.81q-5.93 0-13.58-1.56-7.64-1.56-8.47-1.56-1.46 0-2.81 3.12h-1.46l-1.04-24.75h1.77q4.58 9.05 11.7 15.81 7.13 6.76 15.03 6.76m67.6-26.83q0-10.71-1.04-14.4t-4.06-3.69q-3.01 0-5.4 3.9-2.4 3.9-2.4 10.45v19.03q0 4.47 1.77 7.59t5.2 3.12 4.68-4.57q1.25-4.58 1.25-16.02Zm-37.75-21.52h24.65v8.21q4.05-9.25 14.35-9.25 8.94 0 13.88 6.44 4.94 6.45 4.94 19.56 0 13.1-5.35 19.34-5.36 6.24-16.07 6.24-4.99 0-7.49-1.25t-4.06-3.85v26.94h13.42v1.87h-38.48v-1.87h5.72v-70.51h-5.51Zm88.29 50.53q-13.41 0-20.12-6.92-6.71-6.91-6.71-19.24 0-12.32 7.54-18.87t19.19-6.55q23.61 0 22.67 23.71h-29.33v4.05q0 10.2 2.6 15.4t9.05 5.2q12.07 0 15.81-12.9l1.87.31q-1.97 7.49-7.12 11.65t-15.45 4.16m-6.65-35.05v5.1h10.71v-5.1q0-8.42-.99-11.49t-3.95-3.07-4.37 3.28q-1.4 3.27-1.4 11.28m60.32 35.05q-13.42 0-20.13-6.92-6.7-6.91-6.7-19.24 0-12.32 7.54-18.87t19.18-6.55q23.61 0 22.68 23.71h-29.33v4.05q0 10.2 2.6 15.4t9.05 5.2q12.06 0 15.8-12.9l1.88.31q-1.98 7.49-7.13 11.65t-15.44 4.16m-6.66-35.05v5.1h10.71v-5.1q0-8.42-.98-11.49-.99-3.07-3.96-3.07-2.96 0-4.36 3.28-1.41 3.27-1.41 11.28m62.09-14.66q-4.58 0-6.55 4.99-1.98 4.99-1.98 16.54v5.4q0 10.3 2.29 14.77t8.42 4.47q6.14 0 9.78-4.16t4.68-9.46l1.87.21q-1.97 8.94-7.28 12.89-5.41 4.06-14.87 4.06-12.06 0-18.51-6.5t-6.45-19.03 7.33-19.29 20.44-6.76q9.25 0 14.14 3.58 4.89 3.59 4.89 9t-2.34 7.9q-2.34 2.5-6.45 2.5t-6.6-2.18q-2.5-2.19-2.5-6.45 0-1.87.52-3.75h3.43q.73-2.08.73-3.74 0-4.99-4.99-4.99m20.08-27.46v-1.87h25.07v38.06q1.66-4.78 5.09-7.69t10.4-2.91q16.12 0 16.12 17.36v31.31h5.83v1.87h-29.44v-1.87h4.27v-33.8q0-6.24-.83-8.06-.84-1.82-3.02-1.82-3.33 0-5.88 4.37-2.54 4.36-2.54 10.6v28.71h4.47v1.87h-29.54v-1.87h5.72v-74.26Zm97.76 28.5h-3.85v-1.87h26.84v1.87h-4.27l9.36 35.05 9.26-35.05h-7.18v-1.87h14.04v1.87h-4.37l-12.48 47.63h-14.24l-9.05-31.93-9.78 31.93h-13.93l-15.4-47.63h-4.68v-1.87h31.52v1.87h-6.24l9.56 35.36 7.49-24.34Zm62.6-9.05q-5.51 0-7.85-2.81t-2.34-6.97 2.55-6.86q2.54-2.7 7.74-2.7t7.91 2.44q2.7 2.44 2.7 6.97 0 4.52-2.6 7.23-2.6 2.7-8.11 2.7m-15.7 9.05v-1.87h25.48v47.63h5.82v1.87h-30.89v-1.87h5.72v-45.76Zm37.02 48.67h-1.25v-18.62h1.25q2.7 9.05 7.28 12.69t11.44 3.64q10.61 0 10.61-6.76 0-2.91-2.6-4.37-4.06-2.28-10.4-3.53-7.07-1.87-11.86-4.99-5.72-3.75-5.72-11.86t4.99-12.95q5-4.83 13.32-4.83 5.09 0 10.5 2.39 1.98.83 3.02.83t1.76-.73q.73-.73 1.77-2.7h1.15v15.91h-1.25q-5.31-13.52-16.43-13.52-4.89 0-7.28 1.72-2.4 1.71-2.4 4.31 0 1.56.73 2.45.73.88 1.15 1.3.41.41 1.35.88.93.47 1.56.73.62.26 1.92.67 1.3.42 1.93.52 7.07 1.77 10.19 3.07t5.93 3.17q5.72 3.96 5.72 12.74 0 8.79-5.2 13.32-5.2 4.52-14.25 4.52-6.45 0-12.48-3.02-1.25-.83-1.98-.83-2.29 0-4.47 3.85m68.85 0q-13.42 0-20.13-6.92-6.7-6.91-6.7-19.24 0-12.32 7.54-18.87t19.18-6.55q23.61 0 22.68 23.71h-29.33v4.05q0 10.2 2.6 15.4t9.05 5.2q12.06 0 15.8-12.9l1.88.31q-1.98 7.49-7.13 11.65t-15.44 4.16m-6.66-35.05v5.1h10.71v-5.1q0-8.42-.98-11.49-.99-3.07-3.96-3.07-2.96 0-4.36 3.28-1.41 3.27-1.41 11.28"/><rect width="351.566" height="23.73" x="191.124" y="362.507" fill="none" rx="0" ry="0" transform="translate(400.5 468.76)"/><path fill="#fff" d="M595.787 849.732h5.03q0-.45-.33-.51-.1-.02-.21-.02h-1.1v-4.57l3.09-6.1q.47-.55 1.11-.57.45 0 .51-.33.02-.1.02-.2h-3.65v.53h1.64l-3.11 5.97-3.26-5.97h1.55v-.53h-4.63v.53h1.13l3.85 6.87v4.37h-1.64Zm10.69-4.37q0-3.17 1.74-3.87.45-.17.94-.17 2.28 0 2.65 2.87.06.5.06 1.09 0 3.45-1.89 4.04-.37.1-.76.1-2.07 0-2.6-2.46-.14-.71-.14-1.6m2.74-4.55q-1.96 0-3.28 1.35-1.21 1.26-1.21 3.12 0 2.59 1.89 3.88 1.15.78 2.54.78 1.97 0 3.26-1.4 1.19-1.27 1.19-3.18 0-2.58-1.9-3.83-1.13-.72-2.49-.72m15.78 8.4h-1.03v-8.2h-3.22v.51h1.68v4.43q0 1.84-1.29 2.71-.57.39-1.19.39-1.68 0-1.95-1.73-.04-.28-.04-.61v-5.7h-3.12v.51h1.58v4.88q.02 3.51 2.94 3.53 1.53 0 2.52-1.25.37-.48.59-1.05l.15 2.09h2.89q0-.45-.31-.49-.08-.02-.2-.02m6.27.01h-1.48v-4.08q0-1.87 1.15-3 .45-.43.76-.45.35 0 .64.52.33.57.61.65.13.04.25.04.61 0 .78-.59.04-.12.04-.25 0-.92-.94-1.13-.21-.04-.39-.04-1.23 0-2.2 1.05-.45.49-.72 1.11l-.08-2.03h-2.97v.51h1.54v6.46q0 .94-.54 1.13-.3.1-1 .1v.51h5.06q0-.45-.3-.49-.09-.02-.21-.02m12 0h-1.44v-7.69h2.36v-.51h-2.36v-.13q0-3.5 1.05-3.98.22-.1.49-.1.64 0 1.07.76.37.66.53.78t.37.12q.68 0 .8-.57.02-.1.02-.19 0-.75-1.03-1.19-.59-.22-1.33-.22-1.93 0-2.87 1.6-.64 1.11-.64 2.79v.33h-1.43v.51h1.43v6.46q0 .94-.53 1.13-.31.1-1 .1v.51h5.02q0-.45-.31-.49-.08-.02-.2-.02m9.1.72q1.58 0 1.75-1.91.02-.12.02-.23l-.54-.02q-.14 1.5-.8 1.52-.53-.04-.55-1.07v-4.32q0-2.93-2.93-3.1h-.37q-2.3 0-3.08 1.07-.24.35-.24.69 0 .64.59.74.1.02.21.02.47 0 .69-.59.29-.76.39-.9.39-.52 1.21-.52 1.93.13 1.99 2.12v1.29q-4.82 0-5.51 2.01-.13.39-.13.84 0 1.56 1.38 2.13.55.23 1.17.23 1.49 0 2.52-1.03.37-.39.55-.82.25 1.83 1.68 1.85m-4.08-.82q-1.25 0-1.54-1.25-.06-.29-.06-.64 0-1.37 1.58-1.74.84-.19 2.44-.21v1.64q-.31 1.42-1.5 1.99-.47.21-.92.21m8.56-7.59h1.44v-.51h-3.98v.51h.92l2.51 6.87q.41 1.15.9 1.33.24.1.61.1h.27l2.89-7.58q.25-.64.6-.7.1-.02.18-.02.45 0 .49-.31.02-.1.02-.2h-3.15v.51h1.53l-2.6 6.99Zm9.47 3.83q0-3.17 1.74-3.87.45-.17.94-.17 2.28 0 2.65 2.87.06.5.06 1.09 0 3.45-1.88 4.04-.37.1-.76.1-2.07 0-2.61-2.46-.14-.71-.14-1.6m2.75-4.55q-1.97 0-3.28 1.35-1.21 1.26-1.21 3.12 0 2.59 1.88 3.88 1.15.78 2.54.78 1.97 0 3.27-1.4 1.19-1.27 1.19-3.18 0-2.58-1.91-3.83-1.13-.72-2.48-.72m10.41 8.41h-1.47v-4.08q0-1.87 1.15-3 .45-.43.76-.45.34 0 .63.52.33.57.62.65.12.04.24.04.62 0 .78-.59.04-.12.04-.25 0-.92-.94-1.13-.21-.04-.39-.04-1.23 0-2.19 1.05-.46.49-.72 1.11l-.08-2.03h-2.98v.51h1.54v6.46q0 .94-.53 1.13-.31.1-1.01.1v.51h5.07q0-.45-.31-.49-.08-.02-.21-.02m7.67 0h-1.02v-8.2h-3.18v.51h1.64v6.46q0 .94-.63 1.15-.31.08-1.01.08v.51h4.72q0-.45-.31-.49-.1-.02-.21-.02m-.77-11.2q0-.72-.64-1.02-.25-.11-.47-.11-.72 0-1.03.66-.1.23-.1.47 0 .76.68 1.05.22.08.45.08.72 0 1-.66.11-.22.11-.47m2.31 2.99v.51h1.44v5.78q.14 2.57 2.36 2.65 1.88 0 2.35-2.32v-.04l-.55-.1q-.51 1.7-1.5 1.84-1.1-.04-1.12-1.58v-6.23h3.17v-.51h-3.17v-2.38l-1.54.43v1.95Zm11.36.31q1.44 0 1.91 1.21.17.39.17.84 0 1.03-.99 1.26-.51.1-1.46.08l-2.17-.06q.1-2.36 1.54-3.08.47-.25 1-.25m3.57 6.44-.51-.18q-.72 1.56-2.32 1.76-.2.02-.39.02-2.15 0-2.7-2.56-.17-.72-.19-1.58l2.46.04q2.5.04 3.22-.47.56-.41.56-1.17 0-1.39-1.42-2.21-1-.6-2.32-.6-2.56 0-3.67 2.13-.57 1.11-.57 2.51 0 2.54 1.82 3.77 1.09.72 2.48.72 2.22 0 3.26-1.6.17-.29.29-.58m9.7 1.46h-1.11v-12.82h-3.07v.51h1.54v11.08q0 .94-.54 1.13-.3.1-1 .1v.51h4.69q0-.45-.3-.49-.08-.02-.21-.02m9.09.72q1.58 0 1.74-1.91.02-.12.02-.23l-.53-.02q-.15 1.5-.8 1.52-.54-.04-.56-1.07v-4.32q0-2.93-2.93-3.1h-.37q-2.29 0-3.07 1.07-.25.35-.25.69 0 .64.59.74.11.02.21.02.47 0 .7-.59.28-.76.39-.9.39-.52 1.21-.52 1.92.13 1.99 2.12v1.29q-4.82 0-5.52 2.01-.12.39-.12.84 0 1.56 1.37 2.13.55.23 1.17.23 1.5 0 2.52-1.03.37-.39.56-.82.24 1.83 1.68 1.85m-4.08-.82q-1.25 0-1.54-1.25-.06-.29-.06-.64 0-1.37 1.58-1.74.84-.19 2.44-.21v1.64q-.31 1.42-1.5 1.99-.47.21-.92.21m10.56.1h-.93v-4.43q.07-1.91 1.36-2.75.55-.35 1.13-.35 1.25 0 1.7 1.17.18.47.18 1.07v4.06q0 .94-.53 1.13-.31.1-1.01.1v.51h4.62q0-.45-.31-.49-.08-.02-.2-.02h-1.03v-5.09q0-2.05-1.41-2.93-.66-.39-1.42-.39-1.52 0-2.5 1.21-.37.47-.6 1.05l-.08-2.05h-2.97v.51h1.54v6.46q0 .94-.54 1.13-.3.1-1 .1v.51h4.51q0-.45-.31-.49-.08-.02-.2-.02m9.7-5.17q.04-2.71 2.05-2.73 2.01.04 2.03 2.73-.04 2.79-2.03 2.81-2.03-.04-2.05-2.81m2.07-3.24q-1.85 0-2.93 1.19-.78.88-.78 2.07 0 1.56 1.51 2.59.15.1.29.18-1.31 0-1.64 1.13-.06.26-.06.53.02 1.09.88 1.62-.68.72-.68 1.46 0 1.13 1.34 1.68.84.37 2.07.37 3.12 0 4.12-1.52.33-.51.33-1.09 0-1.76-2.03-2.03-.27-.04-.55-.04l-3.74-.08q-.94-.06-.96-.82 0-.53.68-.68.14-.02.3-.02l1.81.02q1.82 0 2.91-1.23.78-.88.78-2.09-.02-1.54-1.19-2.46.18-.66.7-.78.08-.02.16-.02.29 0 .62.31.22.2.41.2.51-.12.59-.65 0-.64-.59-.86-.23-.09-.45-.09-.97 0-1.56.86-.23.33-.35.72-.92-.47-1.99-.47m0 12.29q-2.03 0-2.56-1.07-.15-.29-.15-.58.02-.55.49-1.1.41.08.68.08l3.16.04q1.54.02 1.78.7.07.16.07.41 0 .9-1.69 1.31-.82.21-1.78.21m15.69-3.89h-1.03v-8.2h-3.22v.51h1.68v4.43q0 1.84-1.29 2.71-.57.39-1.19.39-1.68 0-1.95-1.73-.04-.28-.04-.61v-5.7h-3.11v.51h1.58v4.88q.02 3.51 2.93 3.53 1.54 0 2.52-1.25.37-.48.6-1.05l.14 2.09h2.89q0-.45-.31-.49-.08-.02-.2-.02m9.09.73q1.58 0 1.75-1.91.02-.12.02-.23l-.54-.02q-.14 1.5-.8 1.52-.53-.04-.55-1.07v-4.32q0-2.93-2.93-3.1h-.37q-2.3 0-3.08 1.07-.24.35-.24.69 0 .64.59.74.1.02.21.02.47 0 .69-.59.29-.76.39-.9.39-.52 1.21-.52 1.93.13 1.99 2.12v1.29q-4.82 0-5.52 2.01-.12.39-.12.84 0 1.56 1.38 2.13.55.23 1.16.23 1.5 0 2.53-1.03.37-.39.55-.82.25 1.83 1.68 1.85m-4.08-.82q-1.25 0-1.54-1.25-.06-.29-.06-.64 0-1.37 1.58-1.74.84-.19 2.44-.21v1.64q-.31 1.42-1.5 1.99-.47.21-.92.21m8.6-5.07q.05-2.71 2.06-2.73 2.01.04 2.03 2.73-.05 2.79-2.03 2.81-2.03-.04-2.06-2.81m2.08-3.24q-1.85 0-2.94 1.19-.78.88-.78 2.07 0 1.56 1.52 2.59.15.1.29.18-1.31 0-1.64 1.13-.06.26-.06.53.02 1.09.88 1.62-.68.72-.68 1.46 0 1.13 1.33 1.68.85.37 2.08.37 3.11 0 4.12-1.52.33-.51.33-1.09 0-1.76-2.03-2.03-.27-.04-.56-.04l-3.73-.08q-.94-.06-.96-.82 0-.53.67-.68.15-.02.31-.02l1.81.02q1.82 0 2.91-1.23.78-.88.78-2.09-.02-1.54-1.19-2.46.18-.66.69-.78.09-.02.17-.02.29 0 .61.31.23.2.41.2.52-.12.6-.65 0-.64-.6-.86-.22-.09-.45-.09-.96 0-1.56.86-.22.33-.34.72-.93-.47-1.99-.47m0 12.29q-2.03 0-2.57-1.07-.14-.29-.14-.58.02-.55.49-1.1.41.08.68.08l3.16.04q1.53.02 1.78.7.06.16.06.41 0 .9-1.68 1.31-.82.21-1.78.21m10.23-11.78q1.44 0 1.91 1.21.16.39.16.84 0 1.03-.98 1.26-.52.1-1.46.08l-2.17-.06q.1-2.36 1.53-3.08.48-.25 1.01-.25m3.57 6.44-.51-.18q-.72 1.56-2.32 1.76-.21.02-.39.02-2.16 0-2.71-2.56-.16-.72-.18-1.58l2.46.04q2.5.04 3.22-.47.55-.41.55-1.17 0-1.39-1.41-2.21-1.01-.6-2.32-.6-2.56 0-3.67 2.13-.58 1.11-.58 2.51 0 2.54 1.83 3.77 1.09.72 2.48.72 2.21 0 3.26-1.6.16-.29.29-.58m9.7 1.46h-1.11v-12.82h-3.08v.51h1.54v11.08q0 .94-.53 1.13-.31.1-1.01.1v.51h4.7q0-.45-.31-.49-.08-.02-.2-.02m6.17-7.9q1.44 0 1.91 1.21.16.39.16.84 0 1.03-.98 1.26-.51.1-1.46.08l-2.17-.06q.1-2.36 1.54-3.08.47-.25 1-.25m3.57 6.44-.51-.18q-.72 1.56-2.32 1.76-.21.02-.39.02-2.15 0-2.71-2.56-.16-.72-.18-1.58l2.46.04q2.5.04 3.22-.47.55-.41.55-1.17 0-1.39-1.41-2.21-1.01-.6-2.32-.6-2.56 0-3.67 2.13-.58 1.11-.58 2.51 0 2.54 1.83 3.77 1.09.72 2.48.72 2.22 0 3.26-1.6.17-.29.29-.58m8.86 2.18q1.58 0 1.74-1.91.02-.12.02-.23l-.53-.02q-.14 1.5-.8 1.52-.53-.04-.55-1.07v-4.32q0-2.93-2.94-3.1h-.37q-2.29 0-3.07 1.07-.25.35-.25.69 0 .64.6.74.1.02.2.02.47 0 .7-.59.29-.76.39-.9.39-.52 1.21-.52 1.93.13 1.99 2.12v1.29q-4.82 0-5.52 2.01-.12.39-.12.84 0 1.56 1.37 2.13.56.23 1.17.23 1.5 0 2.52-1.03.37-.39.56-.82.24 1.83 1.68 1.85m-4.08-.82q-1.25 0-1.54-1.25-.06-.29-.06-.64 0-1.37 1.58-1.74.84-.19 2.44-.21v1.64q-.31 1.42-1.5 1.99-.47.21-.92.21m11.15.1h-1.47v-4.08q0-1.87 1.15-3 .45-.43.75-.45.35 0 .64.52.33.57.62.65.12.04.24.04.62 0 .78-.59.04-.12.04-.25 0-.92-.94-1.13-.21-.04-.39-.04-1.23 0-2.2 1.05-.45.49-.71 1.11l-.09-2.03h-2.97v.51h1.54v6.46q0 .94-.53 1.13-.31.1-1.01.1v.51h5.07q0-.45-.31-.49-.08-.02-.21-.02m7.47 0h-.92v-4.43q.06-1.91 1.35-2.75.55-.35 1.13-.35 1.25 0 1.7 1.17.18.47.18 1.07v4.06q0 .94-.53 1.13-.31.1-1 .1v.51h4.61q0-.45-.31-.49-.08-.02-.2-.02h-1.03v-5.09q0-2.05-1.41-2.93-.66-.39-1.42-.39-1.52 0-2.5 1.21-.37.47-.59 1.05l-.09-2.05h-2.97v.51h1.54v6.46q0 .94-.54 1.13-.3.1-1 .1v.51h4.51q0-.45-.31-.49-.08-.02-.2-.02m11.86 0h-1.02v-8.2h-3.18v.51h1.64v6.46q0 .94-.64 1.15-.3.08-1 .08v.51h4.71q0-.45-.3-.49-.11-.02-.21-.02m-.78-11.2q0-.72-.63-1.02-.25-.11-.47-.11-.72 0-1.03.66-.1.23-.1.47 0 .76.67 1.05.23.08.46.08.71 0 1-.66.1-.22.1-.47m6.51 11.2h-.92v-4.43q.06-1.91 1.36-2.75.55-.35 1.12-.35 1.25 0 1.71 1.17.18.47.18 1.07v4.06q0 .94-.53 1.13-.31.1-1.01.1v.51h4.62q0-.45-.31-.49-.08-.02-.21-.02h-1.02v-5.09q0-2.05-1.42-2.93-.65-.39-1.41-.39-1.52 0-2.5 1.21-.37.47-.6 1.05l-.08-2.05h-2.97v.51h1.53v6.46q0 .94-.53 1.13-.31.1-1 .1v.51h4.51q0-.45-.31-.49-.08-.02-.21-.02m9.7-5.17q.05-2.71 2.06-2.73 2.01.04 2.03 2.73-.05 2.79-2.03 2.81-2.03-.04-2.06-2.81m2.08-3.24q-1.85 0-2.94 1.19-.78.88-.78 2.07 0 1.56 1.52 2.59.15.1.29.18-1.31 0-1.64 1.13-.06.26-.06.53.02 1.09.88 1.62-.68.72-.68 1.46 0 1.13 1.33 1.68.85.37 2.08.37 3.11 0 4.12-1.52.33-.51.33-1.09 0-1.76-2.03-2.03-.27-.04-.56-.04l-3.73-.08q-.94-.06-.96-.82 0-.53.67-.68.15-.02.31-.02l1.8.02q1.83 0 2.92-1.23.78-.88.78-2.09-.02-1.54-1.19-2.46.18-.66.69-.78.09-.02.17-.02.29 0 .61.31.23.2.41.2.52-.12.6-.65 0-.64-.6-.86-.22-.09-.45-.09-.96 0-1.56.86-.22.33-.34.72-.93-.47-1.99-.47m0 12.29q-2.03 0-2.57-1.07-.14-.29-.14-.58.02-.55.49-1.1.41.08.68.08l3.16.04q1.53.02 1.78.7.06.16.06.41 0 .9-1.68 1.31-.82.21-1.78.21m17.14-3.16q1.58 0 1.74-1.91.02-.12.02-.23l-.53-.02q-.14 1.5-.8 1.52-.53-.04-.55-1.07v-4.32q0-2.93-2.94-3.1h-.36q-2.3 0-3.08 1.07-.25.35-.25.69 0 .64.6.74.1.02.2.02.47 0 .7-.59.29-.76.39-.9.39-.52 1.21-.52 1.93.13 1.99 2.12v1.29q-4.82 0-5.52 2.01-.12.39-.12.84 0 1.56 1.37 2.13.56.23 1.17.23 1.5 0 2.53-1.03.36-.39.55-.82.24 1.83 1.68 1.85m-4.08-.82q-1.25 0-1.54-1.25-.06-.29-.06-.64 0-1.37 1.58-1.74.84-.19 2.44-.21v1.64q-.31 1.42-1.5 1.99-.47.21-.92.21m9.84.26q1.42 0 1.91-.86.18-.31.18-.67 0-.87-1.25-1.48-.26-.14-.88-.41-1.68-.7-2.23-1.31-.6-.68-.6-1.58 0-1.42 1.56-1.99.72-.27 1.56-.27 1.35 0 2.34.58 0-.6.28-.68.13-.02.27-.02v2.56h-.53q-.04-1.89-2.09-1.91-1.54 0-1.91.91-.1.24-.1.51 0 .88 1.27 1.5.28.14.9.39 1.66.67 2.21 1.29.6.65.6 1.56 0 1.66-1.76 2.21-.68.23-1.48.23-1.48-.02-2.56-.74 0 .53-.27.61-.12.02-.29.02v-3.11h.58q.04 2.64 2.29 2.66m8.21 0q1.41 0 1.9-.86.19-.31.19-.67 0-.87-1.25-1.48-.27-.14-.88-.41-1.69-.7-2.24-1.31-.59-.68-.59-1.58 0-1.42 1.55-1.99.72-.27 1.56-.27 1.36 0 2.34.58 0-.6.29-.68.12-.02.26-.02v2.56h-.53q-.04-1.89-2.09-1.91-1.54 0-1.91.91-.1.24-.1.51 0 .88 1.27 1.5.29.14.9.39 1.66.67 2.22 1.29.59.65.59 1.56 0 1.66-1.76 2.21-.68.23-1.48.23-1.47-.02-2.56-.74 0 .53-.27.61-.12.02-.28.02v-3.11h.57q.04 2.64 2.3 2.66m9.13-.16h-1.02v-8.2h-3.18v.51h1.64v6.46q0 .94-.64 1.15-.3.08-1 .08v.51h4.71q0-.45-.3-.49-.11-.02-.21-.02m-.78-11.2q0-.72-.63-1.02-.25-.11-.47-.11-.72 0-1.03.66-.1.23-.1.47 0 .76.67 1.05.23.08.46.08.71 0 1-.66.1-.22.1-.47m5.81 11.36q1.41 0 1.9-.86.19-.31.19-.67 0-.87-1.25-1.48-.27-.14-.88-.41-1.69-.7-2.24-1.31-.59-.68-.59-1.58 0-1.42 1.55-1.99.72-.27 1.56-.27 1.36 0 2.34.58 0-.6.29-.68.12-.02.26-.02v2.56h-.53q-.04-1.89-2.09-1.91-1.54 0-1.91.91-.1.24-.1.51 0 .88 1.27 1.5.29.14.9.39 1.66.67 2.22 1.29.59.65.59 1.56 0 1.66-1.76 2.21-.68.23-1.48.23-1.47-.02-2.56-.74 0 .53-.27.61-.12.02-.28.02v-3.11h.57q.04 2.64 2.3 2.66m4.7-8.37v.51h1.44v5.78q.14 2.57 2.36 2.65 1.88 0 2.36-2.32v-.04l-.56-.1q-.51 1.7-1.49 1.84-1.11-.04-1.13-1.58v-6.23h3.18v-.51h-3.18v-2.38l-1.54.43v1.95Zm14.28 8.93q1.58 0 1.74-1.91.02-.12.02-.23l-.53-.02q-.15 1.5-.8 1.52-.54-.04-.56-1.07v-4.32q0-2.93-2.93-3.1h-.37q-2.29 0-3.07 1.07-.25.35-.25.69 0 .64.59.74.11.02.21.02.47 0 .7-.59.28-.76.39-.9.39-.52 1.21-.52 1.92.13 1.99 2.12v1.29q-4.82 0-5.52 2.01-.12.39-.12.84 0 1.56 1.37 2.13.55.23 1.17.23 1.5 0 2.52-1.03.37-.39.56-.82.24 1.83 1.68 1.85m-4.08-.82q-1.26 0-1.54-1.25-.06-.29-.06-.64 0-1.37 1.58-1.74.84-.19 2.44-.21v1.64q-.31 1.42-1.5 1.99-.47.21-.92.21m10.56.1h-.93v-4.43q.07-1.91 1.36-2.75.55-.35 1.13-.35 1.25 0 1.7 1.17.18.47.18 1.07v4.06q0 .94-.53 1.13-.31.1-1.01.1v.51h4.62q0-.45-.31-.49-.08-.02-.2-.02h-1.03v-5.09q0-2.05-1.41-2.93-.66-.39-1.42-.39-1.52 0-2.5 1.21-.37.47-.6 1.05l-.08-2.05h-2.97v.51h1.54v6.46q0 .94-.54 1.13-.3.1-1 .1v.51h4.51q0-.45-.31-.49-.08-.02-.2-.02m7.45-8.21v.51h1.44v5.78q.14 2.57 2.36 2.65 1.88 0 2.35-2.32v-.04l-.55-.1q-.51 1.7-1.5 1.84-1.1-.04-1.12-1.58v-6.23h3.17v-.51h-3.17v-2.38l-1.54.43v1.95Z"/></g><path fill="transparent" stroke="transparent" stroke-width="1.786" d="M250 607.143h1000v285.714H250z"/></g></svg>